<svg id="Layer_1" data-name="Layer 1" xmlns="http://www.w3.org/2000/svg" viewBox="0 0 311.81 140"><defs><style>.cls-1{fill:#fff;}</style></defs><title>logo ocuc</title><rect y="46.14" width="270.45" height="47.73"/><rect class="cls-1" x="1.59" y="47.73" width="267.27" height="44.55"/><path d="M21.48,77.36c-3.44,0-5.41-2.12-5.41-5.29V67.94c0-3.17,2-5.3,5.41-5.3s5.39,2.13,5.39,5.3v4.13c0,3.17-2,5.29-5.39,5.29m2.65-9.42a2.46,2.46,0,0,0-2.65-2.58,2.47,2.47,0,0,0-2.66,2.58v4.13a2.46,2.46,0,0,0,2.66,2.57,2.46,2.46,0,0,0,2.65-2.57Z"/><path d="M186.93,77.36c-3.44,0-5.4-2.12-5.4-5.29V67.94c0-3.17,2-5.3,5.4-5.3s5.4,2.13,5.4,5.3v4.13c0,3.17-2,5.29-5.4,5.29m2.66-9.42a2.66,2.66,0,0,0-5.32,0v4.13a2.66,2.66,0,0,0,5.32,0Z"/><path d="M249,77.36c-3.43,0-5.4-2.12-5.4-5.29V67.94c0-3.17,2-5.3,5.4-5.3s5.4,2.13,5.4,5.3v4.13c0,3.17-2,5.29-5.4,5.29m2.66-9.42a2.66,2.66,0,0,0-5.32,0v4.13a2.66,2.66,0,0,0,5.32,0Z"/><path d="M36.75,62.84h5.94c2.9,0,4.52,1.64,4.52,4.11a3.52,3.52,0,0,1-1.29,2.89A3.92,3.92,0,0,1,47.56,73c0,2.53-1.6,4.19-4.54,4.19H36.75Zm6,2.72H39.5v3h3.25c1,0,1.72-.53,1.72-1.52s-.67-1.49-1.72-1.49m.35,8.88c1.12,0,1.72-.57,1.72-1.58a1.52,1.52,0,0,0-1.72-1.57H39.5v3.15Z"/><path d="M57.8,72.64h2.82a2.31,2.31,0,0,0,2.48,2c1.2,0,2-.44,2-1.43,0-.8-.47-1.24-1.47-1.51L61.25,71A4.09,4.09,0,0,1,58,66.81c0-2.87,2.25-4.17,4.74-4.17,2.87,0,4.65,1.67,5,4.11h-3a2,2,0,0,0-2-1.39c-1,0-1.86.45-1.86,1.45,0,.84.65,1.21,1.43,1.41l2.34.64a4.08,4.08,0,0,1,3.39,4.35c0,2.58-1.67,4.15-4.78,4.15s-5.16-1.88-5.3-4.72"/><polygon points="81.9 68.57 86.44 68.57 86.44 71.29 81.9 71.29 81.9 74.44 87.88 74.44 87.88 77.16 79.16 77.16 79.16 62.84 87.88 62.84 87.88 65.56 81.9 65.56 81.9 68.57"/><path d="M101.43,71.27v5.89H98.69V62.84h6c2.91,0,4.52,1.64,4.52,4.21a3.82,3.82,0,0,1-3.09,4.07l3.56,6h-3.14l-3.46-5.89Zm3.35-5.71h-3.35v3h3.35c1,0,1.72-.53,1.72-1.51s-.67-1.54-1.72-1.54"/><path d="M204.84,71.27v5.89H202.1V62.84h6c2.9,0,4.52,1.64,4.52,4.21a3.83,3.83,0,0,1-3.08,4.07l3.55,6H210l-3.46-5.89Zm3.35-5.71h-3.35v3h3.35c1.05,0,1.72-.53,1.72-1.51s-.67-1.54-1.72-1.54"/><polygon points="128.44 62.84 131.32 62.84 126.21 77.16 123.56 77.16 118.44 62.84 121.33 62.84 124.89 72.8 128.44 62.84"/><path d="M143,74.27l-1,2.89h-2.87l5.12-14.32h2.62L152,77.16h-2.87l-1-2.89ZM145.56,67,144,71.68h3.19Z"/><polygon points="167.66 65.56 167.66 77.16 164.83 77.16 164.83 65.56 160.85 65.56 160.85 62.84 171.65 62.84 171.65 65.56 167.66 65.56"/><polygon points="223.93 77.16 223.93 74.44 226.92 74.44 226.92 65.56 223.93 65.56 223.93 62.84 232.65 62.84 232.65 65.56 229.66 65.56 229.66 74.44 232.65 74.44 232.65 77.16 223.93 77.16"/><rect y="92.27" width="63.63" height="47.73"/><rect class="cls-1" x="1.59" y="93.86" width="60.45" height="44.55"/><polygon points="40.54 114.7 45.08 114.7 45.08 117.42 40.54 117.42 40.54 120.58 46.51 120.58 46.51 123.3 37.8 123.3 37.8 108.98 46.51 108.98 46.51 111.7 40.54 111.7 40.54 114.7"/><path d="M16.07,123.3V109h5.41c3.43,0,5.39,2.12,5.39,5.3V118c0,3.17-2,5.3-5.39,5.3Zm8.06-9a2.46,2.46,0,0,0-2.65-2.58H18.82v8.88h2.66A2.46,2.46,0,0,0,24.13,118Z"/><rect x="62.04" y="92.27" width="187.72" height="47.73"/><rect class="cls-1" x="63.63" y="93.86" width="184.55" height="44.55"/><path d="M223.25,118.77h2.82a2.3,2.3,0,0,0,2.47,2c1.21,0,2.05-.45,2.05-1.43,0-.8-.47-1.25-1.47-1.52l-2.42-.65a4.09,4.09,0,0,1-3.27-4.23c0-2.87,2.25-4.18,4.75-4.18a4.59,4.59,0,0,1,4.95,4.12h-3A2,2,0,0,0,228,111.5c-1,0-1.86.44-1.86,1.45,0,.84.66,1.2,1.44,1.41l2.32.63a4.1,4.1,0,0,1,3.41,4.36c0,2.58-1.68,4.15-4.8,4.15s-5.15-1.88-5.29-4.73"/><polygon points="205.99 114.7 210.53 114.7 210.53 117.42 205.99 117.42 205.99 120.58 211.97 120.58 211.97 123.3 203.25 123.3 203.25 108.98 211.97 108.98 211.97 111.7 205.99 111.7 205.99 114.7"/><path d="M163.71,120.41l-1,2.89h-2.87L164.94,109h2.61l5.12,14.32H169.8l-1-2.89Zm2.54-7.24-1.6,4.64h3.19Z"/><polygon points="99.84 123.3 99.84 120.58 102.83 120.58 102.83 111.7 99.84 111.7 99.84 108.98 108.56 108.98 108.56 111.7 105.57 111.7 105.57 120.58 108.56 120.58 108.56 123.3 99.84 123.3"/><path d="M140.16,123.3V109h5.4c3.44,0,5.4,2.12,5.4,5.3V118c0,3.17-2,5.3-5.4,5.3Zm8.06-9a2.47,2.47,0,0,0-2.66-2.58H142.9v8.88h2.66a2.47,2.47,0,0,0,2.66-2.58Z"/><path d="M181.53,123.3V109h5.4c3.43,0,5.4,2.12,5.4,5.3V118c0,3.17-2,5.3-5.4,5.3Zm8.06-9a2.47,2.47,0,0,0-2.66-2.58h-2.66v8.88h2.66a2.47,2.47,0,0,0,2.66-2.58Z"/><path d="M130.28,109v9.22c0,3.17-2,5.3-5.4,5.3s-5.4-2.13-5.4-5.3V109h2.74v9.22a2.66,2.66,0,0,0,5.32,0V109Z"/><path d="M88.92,118.51c-.13,3-2.06,5-5.4,5s-5.4-2.13-5.4-5.29v-4.14c0-3.17,2-5.3,5.4-5.3s5.27,2,5.4,5H86.16a2.67,2.67,0,0,0-5.3.31v4.14a2.67,2.67,0,0,0,5.3.3Z"/><rect x="248.18" y="92.27" width="63.63" height="47.73"/><rect class="cls-1" x="249.77" y="93.86" width="60.45" height="44.55"/><path d="M275.06,109v9.22c0,3.17-2,5.3-5.41,5.3s-5.4-2.13-5.4-5.3V109H267v9.22a2.66,2.66,0,0,0,5.32,0V109Z"/><path d="M295.73,118.51c-.12,3-2.06,5-5.4,5s-5.4-2.13-5.4-5.29v-4.14c0-3.17,2-5.3,5.4-5.3s5.28,2,5.4,5H293a2.66,2.66,0,0,0-5.29.31v4.14a2.66,2.66,0,0,0,5.29.3Z"/><rect width="105" height="47.73"/><path class="cls-1" d="M21.48,31.23c-3.44,0-5.4-2.13-5.4-5.3V21.8c0-3.17,2-5.3,5.4-5.3s5.39,2.13,5.39,5.3v4.13c0,3.17-2,5.3-5.39,5.3m2.65-9.43a2.46,2.46,0,0,0-2.65-2.58,2.47,2.47,0,0,0-2.67,2.58v4.13a2.47,2.47,0,0,0,2.67,2.58,2.46,2.46,0,0,0,2.65-2.58Z"/><path class="cls-1" d="M47.56,26.24c-.13,3-2.07,5-5.4,5s-5.41-2.13-5.41-5.3V21.8c0-3.17,2-5.3,5.41-5.3s5.27,2,5.4,5H44.8a2.66,2.66,0,0,0-5.3.3v4.13a2.67,2.67,0,0,0,5.3.31Z"/><path class="cls-1" d="M88.92,26.24c-.13,3-2.06,5-5.4,5s-5.4-2.13-5.4-5.3V21.8c0-3.17,2-5.3,5.4-5.3s5.27,2,5.4,5H86.16a2.66,2.66,0,0,0-5.3.3v4.13a2.67,2.67,0,0,0,5.3.31Z"/><path class="cls-1" d="M68.24,16.71v9.22c0,3.17-2,5.3-5.4,5.3s-5.4-2.13-5.4-5.3V16.71h2.74v9.22a2.66,2.66,0,0,0,5.32,0V16.71Z"/></svg>